<?xml version="1.0" encoding="UTF-8"?>
<svg width="203.03mm" height="203.03mm" version="1.1" viewBox="0 0 203.03 203.03" xmlns="http://www.w3.org/2000/svg">
 <g transform="translate(-3.1451 -43.983)">
  <path fill="#fff" d="m104.66 43.983a101.52 101.52 0 0 0-101.52 101.52 101.52 101.52 0 0 0 101.52 101.52 101.52 101.52 0 0 0 101.52-101.52 101.52 101.52 0 0 0-101.52-101.52zm-12.587 18.607c7.3051 0 14.311 2.8389 19.477 7.89 5.1653 5.0522 8.0666 11.904 8.0666 19.048-0.0113 1.7656-0.89496 6.6272-1.036 7.4645-5.5899 25.793-15.476 70.139-18.039 81.627 0.029 0.34719 0.16311 0.60334 0.38106 0.72612 0.28547 0.1609 0.68569 0.0836 1.094-0.21381 0.2317-0.26039 0.53665-0.60334 0.80234-0.90394 0.0162-0.0244 0.0329-0.0508 0.0464-0.0783h0.023c7.4991-8.4362 27.507-30.986 28.924-33.039 2.2862-2.3657 2.6381-9.157 2.3824-10.351-0.31871-1.4925-2.6136-26.158-2.9159-29.418 0.0991-0.78646 0.76879-1.3729 1.5606-1.3729 0.6153 0 1.1741 0.36201 1.4274 0.92407 0.29044 0.76423 0.5322 1.5613 0.71119 2.3308l9.2625 30.359c1.0951 3.3311 0.53676 7.0167-1.4938 9.8874 0 0-41.14 53.097-45.188 59.132-1.7991 3.9799-8.3584 18.504-8.6812 19.28-0.49421 1.5655-1.9815 2.5996-3.6206 2.5192-1.9936-0.0963-3.5308-1.791-3.4345-3.7841 7e-3 -0.13443 0.0248-0.2678 0.0444-0.40116 0.10659-0.79811 0.18005-1.5994 0.32845-2.3911l12.367-104.48c-0.0241-0.47738-0.38265-0.87113-0.85589-0.93994-0.55137 0.0201-1.0884 0.0624-1.6345 0.0624-7.3048 0-14.311-2.8378-19.477-7.89-5.1654-5.0511-8.0673-11.903-8.0673-19.048 0-7.1437 2.9018-13.995 8.0673-19.048 5.1658-5.0511 12.172-7.89 19.477-7.89z" stroke-width=".039154"/>
 </g>
</svg>
